<svg id="Capa_1" data-name="Capa 1" xmlns="http://www.w3.org/2000/svg" viewBox="0 0 180 68"><defs><style>.cls-1{opacity:0.25;}.cls-2{fill:#e4d1ad;}</style></defs><g class="cls-1"><rect class="cls-2" width="180" height="68"/></g><path d="M50.19,9.9V58.1h-11L32.69,36.19V58.1H22.21V9.9H32.69l7,21.7V9.9Z"/><path d="M55.22,9.9H76.11v9.65H67.75v9.14h7.83v9.16H67.75v10.6H77V58.1H55.22Z"/><path d="M127.73,9.9l-5.58,48.2H106.5Q104.35,47,102.71,32.82q-.75,6.07-3.5,25.28H83.66L78.05,9.9H90.22l1.33,16.82L92.83,43q.69-12.63,3.46-33.08h13q.25,2.12,1.36,15.9l1.39,18.34q1.06-17.51,3.49-34.24Z"/><path d="M156.75,24.49H145.11V20.92a7.18,7.18,0,0,0-.44-3.19,1.66,1.66,0,0,0-1.49-.68,1.89,1.89,0,0,0-1.71.92,5.34,5.34,0,0,0-.58,2.8,7.92,7.92,0,0,0,.65,3.64q.61,1.21,3.54,2.94,8.37,5,10.54,8.15t2.17,10.27q0,5.16-1.2,7.59a9.52,9.52,0,0,1-4.66,4.1,18.44,18.44,0,0,1-8,1.65,18,18,0,0,1-8.59-1.91,9.29,9.29,0,0,1-4.65-4.85A24.65,24.65,0,0,1,129.54,44V40.83h11.64V46.7a7.85,7.85,0,0,0,.49,3.48,1.92,1.92,0,0,0,1.75.77,2.05,2.05,0,0,0,1.86-1,5.7,5.7,0,0,0,.61-2.92c0-2.83-.39-4.69-1.16-5.56a36.49,36.49,0,0,0-5.87-4.38,58,58,0,0,1-6.19-4.49,10.74,10.74,0,0,1-2.52-3.87,17.15,17.15,0,0,1-1-6.31q0-5.53,1.41-8.1a9.49,9.49,0,0,1,4.57-4,18.08,18.08,0,0,1,7.62-1.45,19.89,19.89,0,0,1,8.32,1.58,8.71,8.71,0,0,1,4.55,4q1.13,2.4,1.12,8.15Z"/></svg>